<svg width="125" height="54" viewBox="0 0 125 54" fill="none" xmlns="http://www.w3.org/2000/svg">
<g clip-path="url(#clip0_27657_6505)">
<path d="M26.4475 4.29359C27.9525 4.29359 29.456 4.44514 30.9159 4.74536C32.3391 5.03696 33.7381 5.47221 35.0746 6.03889C36.3868 6.5948 37.6539 7.28359 38.8385 8.08585C40.0124 8.88093 41.1167 9.79381 42.1201 10.7993C43.1241 11.8056 44.035 12.9124 44.8276 14.0888C45.6274 15.2761 46.3154 16.5452 46.8708 17.861C47.4362 19.2012 47.8705 20.6032 48.1615 22.0289C48.4603 23.4926 48.6115 24.9995 48.6115 26.5078C48.6115 28.0161 48.4603 29.5229 48.1615 30.986C47.8705 32.4116 47.4362 33.8136 46.8708 35.1539C46.3154 36.4704 45.6274 37.7395 44.8276 38.9267C44.0343 40.1039 43.1234 41.21 42.1201 42.2155C41.1167 43.221 40.0131 44.1339 38.8392 44.9283C37.6539 45.7312 36.3868 46.42 35.0739 46.9767C33.7373 47.5433 32.3377 47.9786 30.9159 48.2702C29.4553 48.5697 27.9518 48.7212 26.4468 48.7212C24.9418 48.7212 23.4383 48.5697 21.9784 48.2702C20.5559 47.9786 19.157 47.5433 17.8197 46.9759C16.5075 46.42 15.2404 45.7312 14.0551 44.9283C12.8812 44.1339 11.7775 43.221 10.7735 42.2148C9.77018 41.2093 8.85931 40.1032 8.06597 38.9267C7.26547 37.7395 6.57819 36.4697 6.02278 35.1539C5.45734 33.8136 5.02305 32.4116 4.73208 30.986C4.43324 29.5229 4.28202 28.0161 4.28202 26.5078C4.28202 24.9995 4.43324 23.4926 4.73208 22.0289C5.02305 20.6032 5.45734 19.2012 6.02278 17.861C6.57819 16.5445 7.26618 15.2754 8.06669 14.0881C8.85931 12.9116 9.77018 11.8056 10.7735 10.8C11.7768 9.79452 12.8812 8.88165 14.0551 8.08657C15.2404 7.28359 16.5075 6.5948 17.8204 6.03817C19.1562 5.47149 20.5552 5.03624 21.9791 4.74464C23.439 4.44514 24.9425 4.29287 26.4475 4.29287M26.4475 0C24.6551 0 22.8628 0.180994 21.1206 0.538674C19.4214 0.887016 17.7494 1.40702 16.152 2.08431C14.584 2.74867 13.0725 3.57105 11.6586 4.52845C10.2589 5.47652 8.94244 6.56464 7.74634 7.76337C6.55024 8.9621 5.46451 10.2815 4.51852 11.6842C3.56322 13.1013 2.74265 14.6167 2.07974 16.1875C1.40393 17.7884 0.885071 19.4641 0.537493 21.167C0.181314 22.913 0 24.7093 0 26.5063C0 28.3034 0.180598 30.0989 0.537493 31.845C0.885071 33.5479 1.40393 35.2235 2.07974 36.8245C2.74265 38.3952 3.56322 39.9107 4.51852 41.3285C5.46451 42.7312 6.55024 44.0506 7.74634 45.2493C8.94244 46.448 10.2589 47.5369 11.6586 48.4842C13.0725 49.4416 14.5847 50.264 16.152 50.9284C17.7494 51.6057 19.4214 52.1257 21.1206 52.474C22.8628 52.831 24.6551 53.0127 26.4475 53.0127C28.2399 53.0127 30.0322 52.8317 31.7744 52.474C33.4736 52.1257 35.1456 51.6057 36.743 50.9284C38.311 50.264 39.8225 49.4416 41.2364 48.4842C42.6361 47.5369 43.9526 46.448 45.1487 45.2493C46.3448 44.0506 47.4305 42.7312 48.3765 41.3285C49.3318 39.9114 50.1524 38.3959 50.8153 36.8245C51.4911 35.2235 52.0099 33.5479 52.3575 31.845C52.7137 30.0989 52.895 28.3026 52.895 26.5063C52.895 24.71 52.7144 22.9137 52.3575 21.167C52.0099 19.4641 51.4911 17.7884 50.8153 16.1875C50.1524 14.6167 49.3318 13.1013 48.3765 11.6842C47.4305 10.2808 46.3448 8.9621 45.1487 7.76337C43.9526 6.56464 42.6361 5.47652 41.2364 4.52845C39.8225 3.57105 38.3103 2.74867 36.743 2.08431C35.1456 1.40702 33.4736 0.887016 31.7744 0.538674C30.0322 0.180994 28.2399 0 26.4475 0Z" fill="white"/>
<path d="M42.0444 21.7346L41.2783 23.6861H43.5344L44.3005 21.7346H42.0444Z" fill="#FFC72C"/>
<path d="M19.8164 23.4177C18.5902 22.0847 17.0824 21.4103 15.3301 21.4103C13.4597 21.4103 11.8522 22.0826 10.5529 23.4084C9.25431 24.7335 8.5957 26.3517 8.5957 28.2177C8.5957 30.0837 9.24571 31.7047 10.5285 33.037C11.8121 34.3708 13.3887 35.0474 15.214 35.0474C16.9333 35.0474 18.4798 34.3579 19.8164 32.9961V34.6308H21.9714V16.6226H19.8164V23.4185V23.4177ZM18.6203 24.9023C19.4753 25.8044 19.9088 26.9471 19.9088 28.2981C19.9088 29.6491 19.4423 30.776 18.5214 31.6537C17.5991 32.5335 16.537 32.9796 15.3645 32.9796C14.1183 32.9796 13.0347 32.5041 12.1432 31.5661C11.2502 30.6266 10.7973 29.5112 10.7973 28.2514C10.7973 26.9917 11.2387 25.8798 12.1095 24.9476C12.9781 24.0175 14.0774 23.5463 15.3767 23.5463C16.676 23.5463 17.7675 24.0024 18.621 24.9016" fill="white"/>
<path d="M43.7673 32.9681C43.3287 33.0902 42.8615 33.1548 42.4171 33.1548C41.345 33.1548 40.7638 32.7986 40.7638 30.9218V16.6226H38.5873V21.7349H37.1418L36.375 23.6864H38.5873V30.8493C38.5873 32.8036 38.9793 35.0474 42.0337 35.0474C42.7575 35.0474 43.3524 34.9662 43.8504 34.8003L43.9479 34.7672V32.9171L43.7673 32.9674V32.9681Z" fill="white"/>
<path d="M30.3175 29.6359C30.1914 29.9505 30.0115 30.4396 29.7836 31.0889C29.6747 31.3991 29.5737 31.6907 29.4984 31.9112C29.3006 31.3381 28.9258 30.2751 28.6513 29.6366L25.5317 21.7346H23.2441L28.2744 34.5407L28.3095 34.6312H30.6028L35.6681 21.7346H33.4078L30.3175 29.6359Z" fill="white"/>
<path d="M56.7071 25.2342C57.1865 24.3436 57.8387 23.6512 58.665 23.1571C59.4913 22.6629 60.4115 22.4159 61.4248 22.4159C62.1745 22.4159 62.9141 22.5796 63.6436 22.9064C64.3725 23.2339 64.9522 23.6685 65.3829 24.2114V18.6581H67.7787V34.1065H65.3829V32.3734C64.9938 32.9301 64.4563 33.3897 63.7683 33.751C63.081 34.113 62.2927 34.294 61.4041 34.294C60.4043 34.294 59.4906 34.0404 58.665 33.5319C57.8387 33.0241 57.1858 32.3145 56.7071 31.4024C56.2276 30.4909 55.9883 29.4574 55.9883 28.3025C55.9883 27.1476 56.2276 26.1248 56.7071 25.2335V25.2342ZM64.8935 26.2778C64.5667 25.6932 64.1403 25.2479 63.6121 24.9419C63.0839 24.6359 62.5149 24.4829 61.9043 24.4829C61.2937 24.4829 60.7239 24.6323 60.1965 24.9318C59.6683 25.2313 59.2412 25.6695 58.9151 26.2469C58.5883 26.8244 58.4256 27.5103 58.4256 28.3032C58.4256 29.0961 58.589 29.7928 58.9151 30.3911C59.2412 30.9894 59.6719 31.4455 60.2065 31.7586C60.7411 32.0718 61.3073 32.2283 61.9043 32.2283C62.5013 32.2283 63.0846 32.0754 63.6121 31.7694C64.1395 31.4634 64.5667 31.0145 64.8935 30.4227C65.2195 29.8316 65.3829 29.1385 65.3829 28.3456C65.3829 27.5527 65.2195 26.8632 64.8935 26.2785V26.2778Z" fill="white"/>
<path d="M81.3389 29.2426H72.5692C72.6387 30.1612 72.9784 30.8988 73.5897 31.4555C74.2003 32.0121 74.9507 32.2908 75.8393 32.2908C77.1171 32.2908 78.0194 31.755 78.5476 30.6834H81.1096C80.762 31.7413 80.1335 32.6075 79.2241 33.2826C78.3146 33.9578 77.1859 34.2954 75.8393 34.2954C74.7421 34.2954 73.7596 34.0483 72.8917 33.5541C72.0238 33.06 71.343 32.364 70.8499 31.4662C70.3569 30.5684 70.1104 29.5284 70.1104 28.3455C70.1104 27.1626 70.3497 26.1219 70.8292 25.2248C71.3086 24.327 71.9815 23.6346 72.8494 23.1477C73.7173 22.6607 74.7134 22.4172 75.8386 22.4172C76.9637 22.4172 77.8868 22.6543 78.7339 23.1268C79.581 23.6002 80.2403 24.2645 80.7126 25.1207C81.1849 25.9768 81.4206 26.9615 81.4206 28.0747C81.4206 28.5064 81.3927 28.8964 81.3375 29.244L81.3389 29.2426ZM78.9432 27.322C78.9288 26.4451 78.6164 25.7426 78.0058 25.2133C77.3945 24.6847 76.6377 24.4197 75.7354 24.4197C74.9155 24.4197 74.2146 24.6804 73.6313 25.2025C73.0479 25.7247 72.7011 26.4307 72.59 27.3213H78.9432V27.322Z" fill="white"/>
<path d="M85.4941 33.8028C84.7789 33.476 84.2128 33.0307 83.7964 32.4669C83.38 31.9031 83.1578 31.2739 83.1299 30.5773H85.588C85.6296 31.0649 85.8618 31.4715 86.286 31.7982C86.7096 32.1258 87.2406 32.2888 87.8799 32.2888C88.5191 32.2888 89.0638 32.1602 89.4314 31.9024C89.7991 31.6453 89.9833 31.3149 89.9833 30.9105C89.9833 30.4796 89.7783 30.1592 89.3691 29.9502C88.9592 29.7412 88.3099 29.5121 87.4212 29.2615C86.5598 29.0252 85.8589 28.7953 85.3171 28.5727C84.7753 28.35 84.3066 28.0089 83.911 27.5499C83.5154 27.091 83.3176 26.4855 83.3176 25.7335C83.3176 25.1216 83.4982 24.5613 83.8594 24.0528C84.2206 23.545 84.7373 23.145 85.411 22.8527C86.0847 22.5604 86.8586 22.4146 87.7337 22.4146C89.0387 22.4146 90.0908 22.7457 90.8898 23.4064C91.6882 24.0679 92.1153 24.9686 92.1712 26.1099H89.7962C89.7547 25.5949 89.5461 25.1848 89.1713 24.8781C88.7965 24.5721 88.2891 24.4191 87.6506 24.4191C87.012 24.4191 86.5462 24.5376 86.2129 24.7739C85.8797 25.011 85.7127 25.3241 85.7127 25.7134C85.7127 26.0194 85.8238 26.2772 86.046 26.4855C86.2681 26.6945 86.539 26.8583 86.8587 26.976C87.1783 27.0945 87.6506 27.2439 88.2755 27.4249C89.109 27.6476 89.7926 27.8738 90.3273 28.1037C90.8619 28.3335 91.3234 28.6711 91.7126 29.1164C92.101 29.5617 92.3024 30.1535 92.3167 30.8911C92.3167 31.5454 92.1361 32.1301 91.7749 32.645C91.4137 33.16 90.9035 33.5637 90.2441 33.856C89.5841 34.1483 88.8101 34.2941 87.9214 34.2941C87.0328 34.2941 86.2101 34.1303 85.4949 33.8035L85.4941 33.8028Z" fill="white"/>
<path d="M94.5592 20.4639C94.1493 20.0531 93.9443 19.5446 93.9443 18.9384C93.9443 18.3322 94.1493 17.8237 94.5592 17.4129C94.9692 17.002 95.4758 16.7966 96.0814 16.7966C96.687 16.7966 97.1643 17.002 97.5742 17.4129C97.9841 17.8237 98.1891 18.3322 98.1891 18.9384C98.1891 19.5446 97.9841 20.0531 97.5742 20.4639C97.1643 20.8747 96.6669 21.0802 96.0814 21.0802C95.4959 21.0802 94.9692 20.8747 94.5592 20.4639Z" fill="#FFC72C"/>
<path d="M97.2539 22.6034H94.8789V34.1066H97.2539V22.6034Z" fill="white"/>
<path d="M107.367 22.9481C108.054 23.3029 108.592 23.7453 108.981 24.274V22.6041H111.377V34.2947C111.377 35.352 111.155 36.295 110.711 37.1238C110.266 37.952 109.624 38.6027 108.784 39.076C107.943 39.5493 106.94 39.7856 105.774 39.7856C104.218 39.7856 102.926 39.42 101.899 38.6896C100.872 37.9591 100.288 36.9673 100.149 35.7147H102.503C102.683 36.313 103.068 36.7963 103.659 37.1655C104.249 37.534 104.954 37.7185 105.773 37.7185C106.731 37.7185 107.505 37.4262 108.096 36.8416C108.685 36.2569 108.981 35.408 108.981 34.2947V32.3742C108.578 32.9172 108.033 33.3732 107.345 33.7417C106.658 34.1101 105.877 34.2947 105.002 34.2947C104.002 34.2947 103.088 34.0412 102.263 33.5327C101.436 33.0249 100.783 32.3153 100.305 31.4031C99.8253 30.4917 99.5859 29.4582 99.5859 28.3032C99.5859 27.1483 99.8253 26.1256 100.305 25.2342C100.784 24.3436 101.436 23.6513 102.263 23.1571C103.089 22.663 104.002 22.4159 105.002 22.4159C105.89 22.4159 106.679 22.5933 107.366 22.9481H107.367ZM108.492 26.2778C108.165 25.6932 107.739 25.2479 107.21 24.9419C106.682 24.6359 106.113 24.483 105.503 24.483C104.892 24.483 104.322 24.6324 103.795 24.9319C103.267 25.2314 102.84 25.6695 102.513 26.2469C102.187 26.8244 102.024 27.5103 102.024 28.3032C102.024 29.0962 102.187 29.7929 102.513 30.3911C102.84 30.9894 103.27 31.4455 103.805 31.7587C104.34 32.0718 104.906 32.2284 105.503 32.2284C106.1 32.2284 106.683 32.0754 107.21 31.7694C107.738 31.4635 108.165 31.0146 108.492 30.4227C108.818 29.8316 108.981 29.1385 108.981 28.3456C108.981 27.5527 108.818 26.8632 108.492 26.2785V26.2778Z" fill="white"/>
<path d="M122.719 22.9791C123.434 23.3547 123.993 23.9113 124.396 24.649C124.799 25.3866 125 26.2772 125 27.3208V34.1059H122.647V27.6763C122.647 26.6464 122.389 25.857 121.876 25.3069C121.363 24.7574 120.661 24.4823 119.772 24.4823C118.884 24.4823 118.178 24.7574 117.658 25.3069C117.137 25.857 116.877 26.6464 116.877 27.6763V34.1059H114.502V22.6027H116.877V23.9178C117.265 23.4445 117.762 23.076 118.366 22.811C118.97 22.5467 119.612 22.4146 120.293 22.4146C121.196 22.4146 122.005 22.6027 122.72 22.9784L122.719 22.9791Z" fill="white"/>
</g>
<defs>
<clipPath id="clip0_27657_6505">
<rect width="125" height="53.0134" fill="white"/>
</clipPath>
</defs>
</svg>
